<svg width="21" height="20" viewBox="0 0 21 20" fill="currentColor" xmlns="http://www.w3.org/2000/svg">
<path fill-rule="evenodd" clip-rule="evenodd" d="M0.952381 0C0.426395 0 0 0.426395 0 0.952381V8.57143C0 9.09741 0.426395 9.52381 0.952381 9.52381H9.04762C9.5736 9.52381 10 9.09741 10 8.57143V0.952381C10 0.426395 9.5736 0 9.04762 0H0.952381Z" />
<path fill-rule="evenodd" clip-rule="evenodd" d="M0.952381 10.4761C0.426395 10.4761 0 10.9025 0 11.4285V19.0475C0 19.5735 0.426395 19.9999 0.952381 19.9999H9.04762C9.5736 19.9999 10 19.5735 10 19.0475V11.4285C10 10.9025 9.5736 10.4761 9.04762 10.4761H0.952381Z" />
<path fill-rule="evenodd" clip-rule="evenodd" d="M11.9045 0C11.3785 0 10.9521 0.426395 10.9521 0.952381V8.57143C10.9521 9.09741 11.3785 9.52381 11.9045 9.52381H19.9998C20.5258 9.52381 20.9521 9.09741 20.9521 8.57143V0.952381C20.9521 0.426395 20.5258 0 19.9998 0H11.9045Z" />
<path fill-rule="evenodd" clip-rule="evenodd" d="M11.9045 10.4761C11.3785 10.4761 10.9521 10.9025 10.9521 11.4285V19.0475C10.9521 19.5735 11.3785 19.9999 11.9045 19.9999H19.9998C20.5258 19.9999 20.9521 19.5735 20.9521 19.0475V11.4285C20.9521 10.9025 20.5258 10.4761 19.9998 10.4761H11.9045Z" />
</svg>
