<svg width="21" height="20" viewBox="0 0 21 20" fill="currentColor" xmlns="http://www.w3.org/2000/svg">
<path fill-rule="evenodd" clip-rule="evenodd" d="M11.1303 2.30595C10.7463 1.98256 10.1852 1.98256 9.8012 2.30595L1.32912 9.44032L0 7.86199L8.47209 0.727626C9.62416 -0.242541 11.3074 -0.242542 12.4594 0.727625L20.9315 7.86199L19.6024 9.44032L11.1303 2.30595Z" />
<path fill-rule="evenodd" clip-rule="evenodd" d="M8.45128 0.765146C9.61037 -0.228356 11.3207 -0.228356 12.4798 0.765146L17.6384 5.18673C18.3244 5.77474 18.7192 6.63317 18.7192 7.53671V16.9047C18.7192 18.6141 17.3335 19.9998 15.6241 19.9998H5.30703C3.59765 19.9998 2.21191 18.6141 2.21191 16.9047V7.53671C2.21191 6.63317 2.60674 5.77474 3.29276 5.18673L8.45128 0.765146ZM6.85459 12.7779C6.85459 11.0685 8.24032 9.68279 9.94971 9.68279H10.9814C12.6908 9.68279 14.0765 11.0685 14.0765 12.7779V16.9047C14.0765 17.4745 13.6146 17.9364 13.0448 17.9364H7.88629C7.3165 17.9364 6.85459 17.4745 6.85459 16.9047V12.7779Z" />
</svg>
