<svg width="18" height="18" viewBox="0 0 18 18" fill="none" xmlns="http://www.w3.org/2000/svg">
<mask id="mask0_953_2498" style="mask-type:alpha" maskUnits="userSpaceOnUse" x="0" y="0" width="18" height="18">
<rect width="18" height="18" fill="#D9D9D9"/>
</mask>
<g mask="url(#mask0_953_2498)">
<path d="M3.14961 13.1811V9.4123C3.01211 9.5498 2.86836 9.6873 2.71836 9.82481C2.56836 9.96231 2.41211 10.0936 2.24961 10.2186C2.14961 10.0811 2.04961 9.94981 1.94961 9.82481C1.84961 9.6998 1.74336 9.58105 1.63086 9.46855C2.16836 9.10605 2.64961 8.69043 3.07461 8.22168C3.49961 7.75293 3.88711 7.24355 4.23711 6.69355L5.08086 6.99355C4.93086 7.24355 4.77148 7.49043 4.60273 7.73418C4.43398 7.97793 4.24961 8.21231 4.04961 8.43731V13.1811H3.14961ZM7.40586 13.1811C7.25586 13.1811 7.10898 13.1779 6.96523 13.1717C6.82148 13.1654 6.67461 13.1498 6.52461 13.1248C6.48711 12.9748 6.44648 12.8311 6.40273 12.6936C6.35898 12.5561 6.29336 12.4186 6.20586 12.2811H7.68711C7.74961 12.2811 7.79648 12.2654 7.82773 12.2342C7.85898 12.2029 7.87461 12.1561 7.87461 12.0936V8.6248H4.91211V7.78105H10.1246V8.64355H8.77461V12.2061C8.77461 12.3436 8.76211 12.4842 8.73711 12.6279C8.71211 12.7717 8.63711 12.8811 8.51211 12.9561C8.34961 13.0561 8.17148 13.1186 7.97773 13.1436C7.78398 13.1686 7.59336 13.1811 7.40586 13.1811ZM2.24961 7.55605C2.14961 7.44355 2.05898 7.32793 1.97773 7.20918C1.89648 7.09043 1.81211 6.96855 1.72461 6.84355C2.11211 6.55605 2.49336 6.24355 2.86836 5.90605C3.24336 5.56855 3.58086 5.1998 3.88086 4.7998L4.72461 5.1373C4.39961 5.6248 4.01836 6.06855 3.58086 6.46855C3.14336 6.86855 2.69961 7.23105 2.24961 7.55605ZM5.28711 6.20605V5.3623H9.89961L9.86211 6.20605H5.28711ZM12.9746 11.6998C13.3371 11.6998 13.6902 11.6029 14.034 11.4092C14.3777 11.2154 14.6871 10.9436 14.9621 10.5936V8.75605C14.6621 8.79356 14.3809 8.84043 14.1184 8.89668C13.8559 8.95293 13.6121 9.01856 13.3871 9.09355C12.8371 9.26856 12.4246 9.4873 12.1496 9.7498C11.8746 10.0123 11.7371 10.3123 11.7371 10.6498C11.7371 10.9748 11.8527 11.2311 12.084 11.4186C12.3152 11.6061 12.6121 11.6998 12.9746 11.6998ZM12.5996 12.8623C11.9246 12.8623 11.384 12.6686 10.9777 12.2811C10.5715 11.8936 10.3684 11.3623 10.3684 10.6873C10.3684 10.0498 10.5715 9.53105 10.9777 9.13105C11.384 8.73105 12.0184 8.4123 12.8809 8.1748C13.1684 8.0998 13.4871 8.02793 13.8371 7.95918C14.1871 7.89043 14.5621 7.83105 14.9621 7.78105C14.9246 7.23105 14.7777 6.82793 14.5215 6.57168C14.2652 6.31543 13.8746 6.1873 13.3496 6.1873C13.0246 6.1873 12.7121 6.24355 12.4121 6.35605C12.1121 6.46855 11.7371 6.66855 11.2871 6.95605L10.6684 5.94355C11.0934 5.61855 11.5684 5.36543 12.0934 5.18418C12.6184 5.00293 13.1371 4.9123 13.6496 4.9123C14.5121 4.9123 15.1715 5.18105 15.6277 5.71855C16.084 6.25605 16.3121 7.03105 16.3121 8.04355V12.6936H15.2059L15.0746 11.7936C14.7246 12.1311 14.3371 12.3936 13.9121 12.5811C13.4871 12.7686 13.0496 12.8623 12.5996 12.8623Z" fill="#1C1B1F"/>
</g>
</svg>
