<svg width="22" height="21" viewBox="0 0 22 21" fill="none" xmlns="http://www.w3.org/2000/svg">
<path d="M6.83333 17.1087C8.09207 17.1087 10.0282 17.3748 10.7323 17.478C10.9103 17.5041 11.0893 17.5034 11.2671 17.4761C11.9473 17.3714 13.7798 17.1087 15.0307 17.1087C15.6112 17.1087 16.297 17.1712 16.9296 17.2498C17.9664 17.3786 18.9232 16.6025 18.9302 15.5667L19.0102 3.74584V2.80628C19.0102 2.00144 18.4254 1.31325 17.6202 1.20946C16.8117 1.10523 15.7988 1 15.0051 1C13.7585 1 11.9713 1.25958 11.2841 1.36718C11.0952 1.39676 10.9047 1.39633 10.7159 1.36606C10.0405 1.25779 8.30506 1 7.09276 1C6.32727 1 5.35321 1.10278 4.56915 1.2058C3.7669 1.31121 3.18552 1.99814 3.18552 2.80036V3.70373L3.09819 15.5101C3.0905 16.5507 4.04457 17.3415 5.08754 17.224C5.66593 17.1588 6.28783 17.1087 6.83333 17.1087Z" fill="currentColor"/>
<path d="M11 20C11 20 7.92679 19.587 5.97445 19.587C4.78357 19.587 3.19465 19.7406 2.13638 19.8605C1.53412 19.9287 1 19.4601 1 18.854V4.95894C1 4.56137 1.23554 4.20103 1.61247 4.0746C2.02525 3.93615 2.59962 3.77353 3.18552 3.70373M11 20C11 20 13.971 19.587 15.9234 19.587C17.1285 19.587 18.7802 19.7443 19.868 19.8648C20.4686 19.9313 21 19.4634 21 18.8591V4.93017C21 4.54734 20.7809 4.19761 20.4187 4.07347C20.0608 3.95076 19.565 3.81192 19.0102 3.74584M11 20V17.5183M11 17.5183C11 17.5183 8.3952 17.1087 6.83333 17.1087M11 17.5183C11 17.5183 13.4688 17.1087 15.0307 17.1087M11 17.5183V9.46569V1.41304M6.83333 17.1087C6.02008 17.1087 5.03703 17.22 4.2815 17.3267C3.65849 17.4147 3.08766 16.9343 3.09231 16.3051L3.18552 3.70373M6.83333 17.1087C8.09207 17.1087 10.0282 17.3748 10.7323 17.478C10.9103 17.5041 11.0893 17.5034 11.2671 17.4761C11.9473 17.3714 13.7798 17.1087 15.0307 17.1087M6.83333 17.1087C6.28783 17.1087 5.66593 17.1588 5.08754 17.224C4.04457 17.3415 3.0905 16.5507 3.09819 15.5101L3.18552 3.70373M15.0307 17.1087C15.8696 17.1087 16.9284 17.2393 17.7289 17.3602C18.3481 17.4537 18.9206 16.9824 18.9248 16.3562L19.0102 3.74584M15.0307 17.1087C15.6112 17.1087 16.297 17.1712 16.9296 17.2498C17.9664 17.3786 18.9232 16.6025 18.9302 15.5667L19.0102 3.74584M3.18552 3.70373V2.254C3.18552 1.76788 3.5352 1.35263 4.01623 1.28249C4.8462 1.16147 6.13332 1 7.09276 1M3.18552 3.70373V2.80036C3.18552 1.99814 3.7669 1.31121 4.56915 1.2058C5.35321 1.10278 6.32727 1 7.09276 1M19.0102 3.74584V2.25756C19.0102 1.76987 18.6587 1.35384 18.1759 1.28496C17.3258 1.16368 15.995 1 15.0051 1M19.0102 3.74584V2.80628C19.0102 2.00144 18.4254 1.31325 17.6202 1.20946C16.8117 1.10523 15.7988 1 15.0051 1M11 1.41304C11 1.41304 13.4326 1 15.0051 1M11 1.41304C11 1.41304 8.62728 1 7.09276 1M15.0051 1C13.7585 1 11.9713 1.25958 11.2841 1.36718C11.0952 1.39676 10.9047 1.39633 10.7159 1.36606C10.0405 1.25779 8.30506 1 7.09276 1" stroke="currentColor" stroke-width="1.2" stroke-linecap="round" stroke-linejoin="round"/>
</svg>
