<svg width="20" height="18" viewBox="0 0 20 18" fill="currentColor" xmlns="http://www.w3.org/2000/svg">
<path d="M5 10.593C4.4477 10.593 4 10.145 4 9.59301C3.9999 9.04101 4.4477 8.59301 5 8.59301L15.562 8.59301L12.594 5.59301L14 4.187L18.719 8.87402C19.109 9.26502 19.109 9.92101 18.719 10.312L14 14.999L12.594 13.593L15.562 10.593L5 10.593Z" />
<path d="M7 17C7 17.552 6.552 18 6 18L4 18C1.791 18 -1.82906e-06 16.209 -1.7325e-06 14L-1.29539e-06 3.99999C-1.19883e-06 1.79099 1.791 -1.54865e-05 4 -1.53899e-05L6 -1.53025e-05C6.552 -1.52784e-05 7 0.447985 7 0.999985C7 1.55198 6.552 1.99999 6 1.99999L4 1.99999C2.895 1.99999 2 2.89499 2 3.99999L2 14C2 15.105 2.895 16 4 16L6 16C6.552 16 7 16.448 7 17Z" />
</svg>
