<svg width="23" height="24" viewBox="0 0 23 24" fill="none" xmlns="http://www.w3.org/2000/svg">
<path fill-rule="evenodd" clip-rule="evenodd" d="M4.47222 5.68421H0V3.15789H4.47222V5.68421ZM23 5.68421H10.8611V3.15789H23V5.68421Z" fill="black"/>
<path fill-rule="evenodd" clip-rule="evenodd" d="M7.66667 2.52632C6.60812 2.52632 5.75 3.37462 5.75 4.42105C5.75 5.46749 6.60812 6.31579 7.66667 6.31579C8.72521 6.31579 9.58333 5.46749 9.58333 4.42105C9.58333 3.37462 8.72521 2.52632 7.66667 2.52632ZM3.19444 4.42105C3.19444 1.97937 5.19673 0 7.66667 0C10.1366 0 12.1389 1.97937 12.1389 4.42105C12.1389 6.86273 10.1366 8.8421 7.66667 8.8421C5.19673 8.8421 3.19444 6.86273 3.19444 4.42105Z" fill="black"/>
<path fill-rule="evenodd" clip-rule="evenodd" d="M20.4444 13.2632H23V10.7368H20.4444V13.2632ZM0 13.2632H14.0556V10.7368H0V13.2632Z" fill="black"/>
<path fill-rule="evenodd" clip-rule="evenodd" d="M17.25 10.1053C18.3085 10.1053 19.1667 10.9536 19.1667 12C19.1667 13.0464 18.3085 13.8947 17.25 13.8947C16.1915 13.8947 15.3333 13.0464 15.3333 12C15.3333 10.9536 16.1915 10.1053 17.25 10.1053ZM21.7222 12C21.7222 9.55832 19.7199 7.57895 17.25 7.57895C14.7801 7.57895 12.7778 9.55832 12.7778 12C12.7778 14.4417 14.7801 16.4211 17.25 16.4211C19.7199 16.4211 21.7222 14.4417 21.7222 12Z" fill="black"/>
<path fill-rule="evenodd" clip-rule="evenodd" d="M6.38889 20.8421H0V18.3158H6.38889V20.8421ZM23 20.8421H12.7778V18.3158H23V20.8421Z" fill="black"/>
<path fill-rule="evenodd" clip-rule="evenodd" d="M9.58333 17.6842C8.52479 17.6842 7.66667 18.5325 7.66667 19.5789C7.66667 20.6254 8.52479 21.4737 9.58333 21.4737C10.6419 21.4737 11.5 20.6254 11.5 19.5789C11.5 18.5325 10.6419 17.6842 9.58333 17.6842ZM5.11111 19.5789C5.11111 17.1373 7.11339 15.1579 9.58333 15.1579C12.0533 15.1579 14.0556 17.1373 14.0556 19.5789C14.0556 22.0206 12.0533 24 9.58333 24C7.11339 24 5.11111 22.0206 5.11111 19.5789Z" fill="black"/>
</svg>
