<svg width="24" height="16" viewBox="0 0 24 16" fill="currentColor" xmlns="http://www.w3.org/2000/svg">
<path d="M0 13.225V16H3V9.95C2.75 10.0333 2.50833 10.125 2.275 10.225C2.05833 10.325 1.83333 10.4333 1.6 10.55C1.1 10.8 0.708333 11.1667 0.425 11.65C0.141667 12.1333 0 12.6583 0 13.225Z"/>
<path d="M1.875 8.125C2.45833 8.70833 3.16667 9 4 9C4.83333 9 5.54167 8.70833 6.125 8.125C6.70833 7.54167 7 6.83333 7 6C7 5.16667 6.70833 4.45833 6.125 3.875C5.54167 3.29167 4.83333 3 4 3C3.16667 3 2.45833 3.29167 1.875 3.875C1.29167 4.45833 1 5.16667 1 6C1 6.83333 1.29167 7.54167 1.875 8.125Z" />
<path d="M4 13.2V16H20V13.2C20 12.6333 19.85 12.1167 19.55 11.65C19.2667 11.1667 18.8833 10.8 18.4 10.55C17.3667 10.0333 16.3167 9.65 15.25 9.4C14.1833 9.13333 13.1 9 12 9C10.9 9 9.81667 9.13333 8.75 9.4C7.68333 9.65 6.63333 10.0333 5.6 10.55C5.11667 10.8 4.725 11.1667 4.425 11.65C4.14167 12.1167 4 12.6333 4 13.2Z" />
<path d="M9.175 6.825C9.95833 7.60833 10.9 8 12 8C13.1 8 14.0417 7.60833 14.825 6.825C15.6083 6.04167 16 5.1 16 4C16 2.9 15.6083 1.95833 14.825 1.175C14.0417 0.391667 13.1 0 12 0C10.9 0 9.95833 0.391667 9.175 1.175C8.39167 1.95833 8 2.9 8 4C8 5.1 8.39167 6.04167 9.175 6.825Z" />
<path d="M17.875 8.125C18.4583 8.70833 19.1667 9 20 9C20.8333 9 21.5417 8.70833 22.125 8.125C22.7083 7.54167 23 6.83333 23 6C23 5.16667 22.7083 4.45833 22.125 3.875C21.5417 3.29167 20.8333 3 20 3C19.1667 3 18.4583 3.29167 17.875 3.875C17.2917 4.45833 17 5.16667 17 6C17 6.83333 17.2917 7.54167 17.875 8.125Z" />
<path d="M21 9.95V16H24V13.225C24 12.6583 23.8583 12.1333 23.575 11.65C23.2917 11.1667 22.9 10.8 22.4 10.55C22.1667 10.4333 21.9333 10.325 21.7 10.225C21.4833 10.125 21.25 10.0333 21 9.95Z" />
</svg>
