<svg width="20" height="21" viewBox="0 0 20 21" fill="currentColor" xmlns="http://www.w3.org/2000/svg">
<path fill-rule="evenodd" clip-rule="evenodd" d="M8.30407 3C5.90673 3 3.84677 4.70157 3.39404 7.05577L1.518 16.8112C1.46167 17.1041 1.53905 17.4069 1.72902 17.6368C1.91899 17.8668 2.20171 18 2.50001 18H17.5C17.7983 18 18.081 17.8668 18.271 17.6368C18.461 17.4069 18.5383 17.1041 18.482 16.8112L16.606 7.05576C16.1532 4.70156 14.0933 3 11.6959 3H8.30407Z" />
<path fill-rule="evenodd" clip-rule="evenodd" d="M20 18H0V16H20V18Z" />
<path fill-rule="evenodd" clip-rule="evenodd" d="M6 17C6 16.4477 6.44772 16 7 16H13C13.5523 16 14 16.4477 14 17V18C14 19.6569 12.6569 21 11 21H9C7.34315 21 6 19.6569 6 18V17ZM8 18C8 18.5523 8.44772 19 9 19H11C11.5523 19 12 18.5523 12 18H8Z" />
<path fill-rule="evenodd" clip-rule="evenodd" d="M8 5C7.44772 5 7 4.55228 7 4V3C7 1.34315 8.34315 0 10 0C11.6569 0 13 1.34315 13 3V4C13 4.55228 12.5523 5 12 5H8Z" />
</svg>
