<svg width="18" height="18" viewBox="0 0 18 18" fill="none" xmlns="http://www.w3.org/2000/svg">
<mask id="mask0_953_3581" style="mask-type:alpha" maskUnits="userSpaceOnUse" x="0" y="0" width="18" height="18">
<rect width="18" height="18" fill="#D9D9D9"/>
</mask>
<g mask="url(#mask0_953_3581)">
<path d="M9.0002 2.7002C9.8752 2.7002 10.6934 2.86588 11.4549 3.19726C12.2164 3.52851 12.882 3.97901 13.4516 4.54876C14.0214 5.11838 14.4719 5.78395 14.8031 6.54545C15.1345 7.30695 15.3002 8.1252 15.3002 9.0002C15.3002 9.8752 15.1347 10.6934 14.8037 11.4549C14.4728 12.2166 14.0228 12.8822 13.4537 13.4518C12.8847 14.0216 12.2174 14.4721 11.4519 14.8033C10.6864 15.1346 9.87126 15.3002 9.00638 15.3002C8.52726 15.3002 8.05332 15.2439 7.58457 15.1314C7.11582 15.0189 6.6627 14.8564 6.2252 14.6439L7.2377 13.6314C7.5252 13.7377 7.81582 13.8174 8.10957 13.8705C8.40332 13.9236 8.7002 13.9502 9.0002 13.9502C10.3752 13.9502 11.5439 13.4689 12.5064 12.5064C13.4689 11.5439 13.9502 10.3752 13.9502 9.0002C13.9502 7.6252 13.4689 6.45645 12.5064 5.49395C11.5439 4.53145 10.3752 4.0502 9.0002 4.0502C7.6252 4.0502 6.45645 4.53145 5.49395 5.49395C4.53145 6.45645 4.0502 7.6252 4.0502 9.0002C4.0502 9.3002 4.08145 9.59707 4.14395 9.89082C4.20645 10.1846 4.2877 10.4752 4.3877 10.7627L3.35645 11.7752C3.11895 11.3502 2.9502 10.9002 2.8502 10.4252C2.7502 9.9502 2.7002 9.47313 2.7002 8.99401C2.7002 8.12913 2.86582 7.31395 3.19707 6.54845C3.52832 5.78295 3.97882 5.11569 4.54857 4.54669C5.1182 3.97757 5.78382 3.52757 6.54545 3.19669C7.30695 2.86569 8.1252 2.7002 9.0002 2.7002ZM9.4502 11.2502V9.50645L3.65645 15.2814L2.71895 14.3252L8.49395 8.5502H6.7502V7.2002H10.8002V11.2502H9.4502Z" fill="#1C1B1F"/>
</g>
</svg>
