<svg width="18" height="20" viewBox="0 0 18 20" fill="currentColor" xmlns="http://www.w3.org/2000/svg">
<path fill-rule="evenodd" clip-rule="evenodd" d="M7.52922 0.385274C8.44246 -0.128424 9.55754 -0.128425 10.4708 0.385273L16.4708 3.76027C17.4154 4.29163 18 5.29118 18 6.375V13.0356C18 14.1194 17.4154 15.119 16.4708 15.6503L10.4708 19.0253C9.55754 19.539 8.44246 19.539 7.52922 19.0253L1.52922 15.6503C0.584586 15.119 0 14.1194 0 13.0356V6.375C0 5.29118 0.584585 4.29163 1.52922 3.76027L7.52922 0.385274ZM7 9.7053C7 8.60073 7.89543 7.7053 9 7.7053C10.1046 7.7053 11 8.60073 11 9.7053C11 10.8099 10.1046 11.7053 9 11.7053C7.89543 11.7053 7 10.8099 7 9.7053ZM9 5.7053C6.79086 5.7053 5 7.49616 5 9.7053C5 11.9144 6.79086 13.7053 9 13.7053C11.2091 13.7053 13 11.9144 13 9.7053C13 7.49616 11.2091 5.7053 9 5.7053Z"/>
</svg>
