<svg width="18" height="18" viewBox="0 0 18 18" fill="none" xmlns="http://www.w3.org/2000/svg">
<mask id="mask0_953_1386" style="mask-type:alpha" maskUnits="userSpaceOnUse" x="0" y="0" width="18" height="18">
<rect width="18" height="18" fill="#D9D9D9"/>
</mask>
<g mask="url(#mask0_953_1386)">
<path d="M4.94436 16.1998C4.57286 16.1998 4.25586 16.0676 3.99336 15.8032C3.73086 15.5389 3.59961 15.2211 3.59961 14.8498V3.1498C3.59961 2.77855 3.73186 2.46074 3.99636 2.19637C4.26086 1.93199 4.57886 1.7998 4.95036 1.7998H13.0549C13.4264 1.7998 13.7434 1.93199 14.0059 2.19637C14.2684 2.46074 14.3996 2.77855 14.3996 3.1498V14.8498C14.3996 15.2211 14.2674 15.5389 14.0029 15.8032C13.7384 16.0676 13.4204 16.1998 13.0489 16.1998H4.94436ZM4.94961 14.8498H13.0496V3.1498H11.6996V8.9998L9.89961 8.0998L8.09961 8.9998V3.1498H4.94961V14.8498Z" fill="#1C1B1F"/>
</g>
</svg>
